<?xml version="1.0" encoding="utf-8"?>
<svg viewBox="0 0 500 500" xmlns="http://www.w3.org/2000/svg">
  <g style="" transform="matrix(0.769091, 0, 0, 0.769091, 92.593422, 12.942484)">
    <path style="fill: rgb(79, 60, 58);" d="M 128.597 114.991 C 151.364 94.815 169.783 82.076 199.781 77.197 C 236.535 71.218 280.459 77.712 308.582 102.017 C 330.084 120.6 345.597 136.785 350.86 164.737 C 356.979 197.243 355.398 211.529 344.674 242.868 C 329.172 288.174 317.801 295.457 291.176 335.282 C 276.509 357.219 245.626 426.256 231.568 448.588 C 221.691 464.278 198.727 497.317 182.627 506.508 C 160.168 519.328 126.964 524.466 103.215 514.377 C 69.213 499.933 64.954 452.966 54.272 417.838 C 51.084 407.353 51.905 396.013 51.453 385.428 C 50.968 374.079 49.52 352.275 50.144 340.853 C 51.601 314.132 57.339 287.832 63.878 261.095 C 75.195 214.819 80.274 185.972 105.384 145.453 C 110.046 137.93 121.973 120.862 128.597 114.991 Z" transform="matrix(0.965496, -0.260418, 0.260418, 0.965496, -70.721218, 61.793863)"/>
    <path style="stroke: rgb(0, 0, 0); fill: rgb(58, 79, 69);"/>
    <path style="fill: rgb(216, 216, 216); stroke: rgb(0, 0, 0);" d="M 222.927 171.552 L 222.927 171.552 L 222.927 171.552 Z"/>
    <path style="fill: rgb(216, 216, 216); stroke: rgb(0, 0, 0);" d="M 222.927 171.552 L 222.197 170.821 L 222.197 170.821"/>
  </g>
  <g style="" transform="matrix(0.98137, 0, 0, 0.98137, 1.918897, 2.179289)">
    <path style="fill: rgb(195, 132, 73);" d="M 152.362 116.977 C 152.362 116.977 125.302 192.69 117.103 231.919 C 108.681 272.217 103 354.618 103 354.618 C 103 354.618 116.472 319.066 131.911 303.14 C 137.33 297.55 153.771 284.101 153.771 284.101 C 153.771 284.101 147.089 233.325 146.72 206.532 C 146.317 177.229 152.362 116.977 152.362 116.977 Z"/>
    <path style="fill: rgb(195, 132, 73);" d="M 105.742 355.618 C 105.742 355.618 120.974 322.154 132.482 308.08 C 141.595 296.937 153.56 288.371 165.165 279.855 C 183.002 266.764 221.615 244.944 221.615 244.944 C 221.615 244.944 189.177 274.987 177.049 293.225 C 170.116 303.65 161.451 327.393 161.451 327.393 C 161.451 327.393 144.017 331.642 136.195 335.564 C 125.402 340.975 105.742 355.618 105.742 355.618 Z"/>
    <path style="fill: rgb(195, 132, 73);" d="M 222.803 248.886 L 199.43 270.997 L 184.9 291.844 C 184.9 291.844 206.14 304.307 212.065 324.062 C 219.93 350.291 219.645 426.405 219.645 426.405 C 219.645 426.405 238.587 340.788 237.333 303.847 C 236.526 280.054 224.699 248.254 222.803 248.886 Z"/>
    <path style="fill: rgb(195, 132, 73);" d="M 241.469 324.157 L 234.728 387.64 L 224.615 426.405 C 224.615 426.405 288.412 354.006 312.818 316.292 C 334.251 283.172 347.215 259.848 361.694 222.473 C 369.415 202.542 383.042 155.056 383.042 155.056 C 383.042 155.056 354.493 217.581 329.11 249.686 C 312.265 270.993 296.992 291.906 274.616 307.303 C 269.287 310.97 241.469 324.157 241.469 324.157 Z"/>
  </g>
</svg>