<?xml version="1.0" encoding="utf-8"?>
<svg viewBox="0 0 1000 1000" xmlns="http://www.w3.org/2000/svg">
  <g style="" transform="matrix(1, 0, 0, 1, 7, -6)">
    <title>pattern-2</title>
    <g>
      <title>border</title>
      <path style="fill: none; stroke-width: 6px; stroke: rgb(0, 0, 0);" d="M 536.918 870.552 C 411.841 595.443 272.151 524.139 196.699 506.673 C 193.164 505.855 197.848 479.519 201.11 452.772 C 201.989 445.563 203.343 439.475 204.957 433.182 C 206.842 425.831 208.799 417.841 211.048 411.152 C 212.245 407.591 212.626 406.664 213.884 401.654 C 214.473 399.308 217.458 392.114 218.127 389.751 C 218.59 388.116 223.677 377.305 224.761 375.119 C 226.496 371.622 228.947 362.48 233.72 365.815 C 264.273 387.166 293.041 402.408 319.891 422.793 C 372.625 462.83 417.261 502.837 454.182 573.475 C 489.539 641.122 517.877 737.265 536.918 870.552 Z"/>
    </g>
    <g style="">
      <title>scale-pattern</title>
      <path style="stroke-width: 5px; fill: none; stroke: rgb(0, 0, 0);" d="M 200.183 456.579 C 242.689 456.579 284.432 445.279 321.134 423.836"/>
      <path style="stroke-width: 5px; fill: none; stroke: rgb(0, 0, 0);" d="M 206.197 429.182 A 192.621 192.621 0 0 0 294.405 407.798"/>
      <path style="stroke-width: 5px; fill: none; stroke: rgb(0, 0, 0);" d="M 214.884 398.442 A 138.994 138.994 0 0 0 268.343 387.751"/>
      <path style="stroke-width: 5px; fill: none; stroke: rgb(0, 0, 0);" d="M 280.706 541.112 C 309.847 506.364 303.143 456.579 294.405 439.54"/>
      <path style="stroke-width: 5px; fill: none; stroke: rgb(0, 0, 0);" d="M 252.51 527.508 C 268.343 499.442 268.343 472.377 260.863 446.651"/>
      <path style="stroke-width: 5px; fill: none; stroke: rgb(0, 0, 0);" d="M 222.769 511.766 C 231.92 493.055 234.593 473.34 227.113 454.297"/>
      <path style="stroke-width: 5px; fill: none; stroke: rgb(0, 0, 0);" d="M 324.559 539.742 C 343.023 531.36 379.09 480.378 376.348 448.826" transform="matrix(0.764668, 0.644425, -0.644425, 0.764668, 393.582516, -99.858692)"/>
      <path style="stroke-width: 5px; fill: none; stroke: rgb(0, 0, 0);" d="M 315.138 506.618 C 336.984 485.348 347.072 466.298 348.491 444.013" transform="matrix(0.764668, 0.644425, -0.644425, 0.764668, 387.386391, -99.449484)"/>
      <path style="stroke-width: 5px; fill: none; stroke: rgb(0, 0, 0);" d="M 316.263 476.916 C 330.922 464.44 337.723 446.242 336.486 432.714" transform="matrix(0.764668, 0.644425, -0.644425, 0.764668, 367.385484, -104.566789)"/>
      <path style="stroke-width: 5px; fill: none; stroke: rgb(0, 0, 0);" d="M 413.795 602.111 C 415.367 577.854 378.686 522.419 350.249 511.719" transform="matrix(0.764668, 0.644425, -0.644425, 0.764668, 439.332764, -116.003396)"/>
      <path style="stroke-width: 5px; fill: none; stroke: rgb(0, 0, 0);" d="M 354.203 588.465 C 350.806 570.221 338.972 546.267 313.994 529.927" transform="matrix(0.764668, 0.644425, -0.644425, 0.764668, 447.339878, -95.042778)"/>
      <path style="stroke-width: 5px; fill: none; stroke: rgb(0, 0, 0);" d="M 313.133 564.644 C 316.539 551.737 307.275 540.744 292.6 527.906" transform="matrix(0.764668, 0.644425, -0.644425, 0.764668, 432.646954, -70.393238)"/>
      <path style="stroke-width: 5px; fill: none; stroke: rgb(0, 0, 0);" d="M 417.179 585.356 C 447.909 581.447 481.186 553.403 485.013 530.104" transform="matrix(0.764668, 0.644425, -0.644425, 0.764668, 434.904434, -122.155017)"/>
      <path style="stroke-width: 5px; fill: none; stroke: rgb(0, 0, 0);" d="M 500.969 601.418 C 511.152 578.33 481.502 531.239 461.587 526.124" transform="matrix(0.764668, 0.644425, -0.644425, 0.764668, 438.320848, -96.20983)"/>
      <path style="stroke-width: 5px; fill: none; stroke: rgb(0, 0, 0);" d="M 448.335 533.551 C 478.624 547.349 509.855 541.102 529.474 525.48" transform="matrix(0.764668, 0.644425, -0.644425, 0.764668, 442.761482, -16.295442)"/>
      <path style="stroke-width: 5px; fill: none; stroke: rgb(0, 0, 0);" d="M 384.862 584.17 C 407.319 580.847 430.804 557.314 433.615 543.084" transform="matrix(0.764668, 0.644425, -0.644425, 0.764668, 466.561297, -131.093674)"/>
      <path style="stroke-width: 5px; fill: none; stroke: rgb(0, 0, 0);" d="M 391.901 552.743 C 412.413 547.112 423.728 525.921 420.704 522.333" transform="matrix(0.764668, 0.644425, -0.644425, 0.764668, 440.926531, -143.015684)"/>
      <path style="stroke-width: 5px; fill: none; stroke: rgb(0, 0, 0);" d="M 428.417 654.646 C 428.7 631.802 416.992 617.909 408.668 609.584" transform="matrix(0.764668, 0.644425, -0.644425, 0.764668, 505.727529, -121.381243)"/>
      <path style="stroke-width: 5px; fill: none; stroke: rgb(0, 0, 0);" d="M 387.186 632.007 C 388.338 621.204 385.244 611.153 380.99 603.807" transform="matrix(0.764668, 0.644425, -0.644425, 0.764668, 495.611506, -104.486813)"/>
      <path style="stroke-width: 5px; fill: none; stroke: rgb(0, 0, 0);" d="M 446.461 676.697 C 462.389 682.719 483.348 676.917 490.368 671" transform="matrix(0.764668, 0.644425, -0.644425, 0.764668, 550.553087, -154.657478)"/>
      <path style="stroke-width: 5px; fill: none; stroke: rgb(0, 0, 0);" d="M 450.937 624.18 C 467.666 630.161 484.993 626.733 486.558 625.415" transform="matrix(0.764668, 0.644425, -0.644425, 0.764668, 513.648092, -154.781292)"/>
      <path style="stroke-width: 5px; fill: none; stroke: rgb(0, 0, 0);" d="M 525.515 569.782 C 515.126 556.732 507.099 547.929 483.893 537.434" transform="matrix(0.764668, 0.644425, -0.644425, 0.764668, 448.80315, -7.034314)"/>
      <path style="stroke-width: 5px; fill: none; stroke: rgb(0, 0, 0);" d="M 540.566 803.923 C 530.177 790.873 504.889 766.244 465.473 744.128" transform="matrix(0.764668, 0.644425, -0.644425, 0.764668, 616.714984, -143.970832)"/>
    </g>
  </g>
  <g style="">
    <title>mango-stem</title>
    <path stroke-width="0" d="M 663.961 28.675 C 665.167 29.971 665.097 32.753 665.247 35.267 C 665.425 38.251 665.172 43.172 664.604 45.557 C 664.225 47.147 663.987 48.158 662.996 48.933 C 661.91 49.783 659.376 50.294 657.943 50.237 C 657.587 54.144 656.955 59.701 655.922 64.208 C 654.523 70.307 652.426 80.225 649.812 83.019 C 648.25 84.689 645.457 84.318 644.506 84.305 C 644.051 84.299 643.93 83.719 643.702 83.984 C 643.092 84.692 643.753 90.954 642.738 94.113 C 641.72 97.279 638.765 101.627 637.593 102.956 C 637.046 103.575 636.761 103.022 636.306 103.76 C 635.179 105.589 633.98 113.975 632.448 117.909 C 631.171 121.184 628.999 125.041 628.106 126.109 C 627.75 126.535 627.517 126.376 627.303 126.591 C 627.088 126.805 627.097 127.081 626.82 127.395 C 626.396 127.876 625.535 128.233 624.73 129.163 C 623.487 130.601 621.211 133.051 620.228 135.916 C 619.033 139.402 620.231 144.181 618.942 149.1 C 617.354 155.163 611.991 164.213 610.26 169.68 C 609.013 173.619 609.611 175.488 608.33 179.327 C 606.6 184.513 602.121 193.974 599.648 198.299 C 598.018 201.151 597.223 202.456 595.307 204.248 C 593.162 206.255 588.468 208 587.107 209.554 C 586.288 210.49 586.355 210.717 586.143 212.127 C 585.73 214.866 586.792 222.328 586.143 226.597 C 585.572 230.348 583.434 233.424 582.927 236.565 C 582.47 239.392 583.327 242.799 582.927 244.604 C 582.667 245.777 582.463 246.419 581.641 247.016 C 580.556 247.804 577.701 248.439 576.335 248.302 C 575.299 248.199 574.553 247.858 573.923 247.016 C 573.06 245.863 573.579 242.589 572.315 241.228 C 570.982 239.792 567.028 239.787 565.884 238.816 C 565.145 238.189 565.325 237.185 564.919 236.726 C 564.597 236.362 564.353 236.436 563.794 236.083 C 562.761 235.431 559.764 233.771 558.81 232.707 C 558.16 231.982 558.503 231.338 557.845 230.616 C 556.869 229.547 553.481 227.987 552.7 227.24 C 552.332 226.888 552.452 226.686 552.218 226.436 C 551.943 226.144 551.42 226.181 551.092 225.632 C 550.518 224.671 549.386 222.121 549.806 220.166 C 550.326 217.744 554.358 213.314 555.272 212.287 C 555.612 211.906 555.626 212.258 555.916 211.805 C 556.809 210.407 559.375 203.753 560.739 199.264 C 562.196 194.471 562.551 188.312 564.276 183.829 C 565.821 179.814 567.821 175.411 570.225 173.378 C 572.152 171.749 574.809 173.136 576.817 171.288 C 579.663 168.669 582.077 161.612 584.213 156.496 C 586.372 151.326 588.633 145.395 589.68 140.418 C 590.599 136.05 589.626 131.776 590.644 128.199 C 591.57 124.949 594.053 120.975 595.146 119.677 C 595.668 119.058 595.87 119.532 596.433 118.873 C 597.742 117.342 601.538 111.385 602.542 107.94 C 603.397 105.009 601.976 102.379 602.864 99.58 C 603.861 96.434 607.953 91.243 608.813 90.093 C 609.093 89.718 609.071 89.786 609.295 89.611 C 609.604 89.37 610.119 89.558 610.581 88.807 C 611.758 86.897 613.033 76.177 614.762 73.694 C 615.729 72.305 616.664 73.253 617.977 71.925 C 620.51 69.365 626.92 57.62 628.267 56.008 C 628.648 55.552 628.572 55.86 628.91 55.525 C 629.713 54.733 632.373 51.162 633.412 50.22 C 633.977 49.707 634.37 49.731 634.699 49.416 C 634.994 49.132 634.865 49.108 635.342 48.451 C 636.836 46.391 644.694 37.081 647.561 32.373 C 649.792 28.709 650.631 24.233 652.063 22.565 C 652.89 21.603 653.439 21.383 654.475 21.279 C 655.84 21.142 658.676 21.418 659.78 22.565 C 660.765 23.588 661.26 25.511 661.167 27.492 C 662.266 27.669 663.363 28.032 663.961 28.675 Z" style="stroke-width: 2px; stroke: rgb(0, 0, 0);"/>
    <path d="M 285.7 335.432" style="fill: rgb(216, 216, 216); stroke-width: 8px; stroke: rgb(0, 0, 0);"/>
    <path d="M 544.205 220.885 C 542.7 220.885 546.297 219.824 548.332 217.789 C 550.517 215.605 550.666 212.359 552.46 210.565 C 558.809 204.216 558.209 191.401 564.844 184.766 C 566.989 182.621 565.411 176.46 567.424 174.447 C 570.227 171.643 575.839 169.128 578.775 166.191 C 585.456 159.51 582.804 144.619 589.095 138.329 C 592.792 134.631 586.813 123.583 590.127 120.269 C 595.15 115.245 603.548 106.314 605.606 98.082 C 604.574 97.421 609.734 86.731 609.734 86.731 C 609.734 86.731 609.73 76.931 611.282 75.379 C 622.806 63.855 628.213 48.128 640.176 36.165 C 642.111 34.231 654.306 18.305 657.719 21.718 C 660.901 24.9 662.793 29.372 665.975 32.553 C 668.171 34.749 665.436 43.412 663.911 44.937 C 655.103 53.744 654.705 72.203 646.368 80.539 C 640.53 86.377 647.563 98.952 641.724 104.79 C 632.904 113.61 629.769 125.002 620.569 134.201 C 615.629 139.141 622.205 155.783 616.957 161.032 C 612.802 165.187 611.908 173.82 607.67 178.059 C 605.432 180.297 609.649 183.82 607.67 185.798 C 600.452 193.016 595.796 203.348 588.063 211.081 C 583.149 215.995 585.212 229.927 581.355 233.784 C 579.718 235.422 587.242 241.312 582.903 245.652 C 579.388 249.167 564.678 232.587 561.232 229.141 C 558.755 226.664 541.915 222.659 544.205 220.369 Z" style="fill: none; stroke-width: 8px; stroke: rgb(0, 0, 0);"/>
    <path d="M 302.3277333963516 263.96256205621233" style="fill: rgb(216, 216, 216); stroke-width: 8px; stroke: rgb(0, 0, 0);"/>
  </g>
  <g style="">
    <title>mountain-pattern-1</title>
    <g style="">
      <title>mountain-pattern-1</title>
      <g style="">
        <title>straight-paths</title>
        <line style="stroke-width: 6px; stroke: rgb(0, 0, 0);" x1="369.921" y1="377.777" x2="355.372" y2="421.423"/>
        <line style="stroke-width: 6px; stroke: rgb(0, 0, 0);" x1="319" y1="361.15" x2="310.686" y2="390.248"/>
        <line style="stroke-width: 6px; stroke: rgb(0, 0, 0);" x1="417.724" y1="401.679" x2="396.94" y2="459.874"/>
        <line style="stroke-width: 6px; stroke: rgb(0, 0, 0);" x1="464.488" y1="433.894" x2="440.586" y2="508.042"/>
        <line style="stroke-width: 6px; stroke: rgb(0, 0, 0);" x1="512.291" y1="473.383" x2="479.036" y2="564.833"/>
        <line style="stroke-width: 6px; stroke: rgb(0, 0, 0);" x1="556.976" y1="528.461" x2="509.441" y2="648.968"/>
        <line style="stroke-width: 6px; stroke: rgb(0, 0, 0);" x1="596.466" y1="593.93" x2="538.575" y2="757.479"/>
        <line style="stroke-width: 6px; stroke: rgb(0, 0, 0);" x1="595.427" y1="593.93" x2="596.466" y2="590.813"/>
      </g>
      <g style="">
        <title>curved-paths</title>
        <path style="fill: none; stroke-width: 6px; stroke: rgb(0, 0, 0);" d="M 624.878 642.7 C 610.254 661.503 596.466 670.779 567.705 674.957"/>
        <path style="fill: none; stroke-width: 6px; stroke: rgb(0, 0, 0);" d="M 597.616 591.567 C 578.946 597.865 566.602 606.406 532.719 594.401"/>
        <path style="fill: none; stroke-width: 6px; stroke: rgb(0, 0, 0);" d="M 556.464 525.407 C 541.84 538.325 511.868 538.039 494.509 523.827"/>
        <path style="fill: none; stroke-width: 6px; stroke: rgb(0, 0, 0);" d="M 511.603 471.415 C 496.979 490.218 461.491 484.047 452.223 472.41"/>
        <path style="fill: none; stroke-width: 6px; stroke: rgb(0, 0, 0);" d="M 465.467 430.39 C 452.223 445.148 415.32 440.447 408.259 432.12"/>
        <path style="fill: none; stroke-width: 6px; stroke: rgb(0, 0, 0);" d="M 417.136 398.728 C 402.005 413.473 377.057 411.403 361.485 401.377"/>
        <path style="fill: none; stroke-width: 6px; stroke: rgb(0, 0, 0);" d="M 370.085 374.954 C 358.505 389.191 324.679 384.771 314.18 376.774"/>
        <path style="fill: none; stroke-width: 6px; stroke: rgb(0, 0, 0);" d="M 321.029 356.279 C 306.405 375.082 267.761 363.052 251.428 350.236"/>
      </g>
      <g style="">
        <title>flat-fills</title>
        <g style="visibility: hidden;">
          <title>fill-in</title>
          <path d="M 354.644 379.812 C 355.901 380.457 356.296 381.154 356.582 381.617 C 356.748 381.887 356.749 382.074 356.716 382.286 C 356.683 382.498 356.629 382.732 356.382 382.887 C 355.981 383.14 354.475 383.486 354.109 383.288 C 353.859 383.153 353.826 382.609 353.908 382.419 C 353.978 382.258 354.498 382.298 354.443 382.152 C 354.399 382.035 354.135 381.854 353.732 381.64 C 353.751 381.913 353.667 382.179 353.607 382.386 C 353.518 382.697 353.31 382.969 353.006 383.121 C 352.63 383.308 352.047 383.259 351.401 383.255 C 350.563 383.248 349.341 383.205 348.326 382.987 C 347.29 382.765 346.374 382.143 345.252 381.918 C 344.03 381.673 342.521 381.645 341.241 381.65 C 340.032 381.655 339.318 382.079 337.765 381.918 C 337.277 381.867 336.657 381.732 335.963 381.548 C 335.962 381.56 335.961 381.572 335.96 381.583 C 335.939 381.837 335.889 382.042 335.693 382.185 C 335.425 382.38 334.883 382.571 334.289 382.452 C 333.381 382.27 332.003 380.914 330.679 380.447 C 329.425 380.004 328.04 380.137 326.584 379.773 C 326.283 379.982 326.003 380.192 325.465 380.18 C 323.82 380.141 320.19 378.69 318.38 377.907 C 317.022 377.32 315.713 376.784 315.238 376.102 C 314.895 375.609 314.963 374.942 315.104 374.498 C 315.235 374.086 315.751 373.69 315.973 373.495 C 316.11 373.376 316.247 373.443 316.308 373.295 C 316.411 373.042 316.052 372.225 316.174 371.824 C 316.284 371.462 316.635 371.192 316.909 370.955 C 317.172 370.728 317.636 370.724 317.778 370.42 C 317.952 370.05 317.533 369.192 317.645 368.749 C 317.737 368.381 318.033 368.071 318.246 367.88 C 318.416 367.728 318.487 367.639 318.781 367.613 C 319.341 367.563 320.145 367.713 321.722 368.148 C 324.993 369.049 335.349 372.635 339.236 374.164 C 341.614 375.099 342.84 375.648 344.177 376.433 C 348.119 377.484 353.034 378.987 354.644 379.812 Z M 368.38 386.062 C 368.66 386.007 369.036 385.8 369.851 386.062 C 370.828 386.376 372.99 387.681 375.261 389.056 C 375.465 389.069 375.671 389.095 375.867 389.137 C 376.878 389.354 377.659 389.793 379.343 390.607 C 380.412 391.124 382.36 392.119 384.468 393.217 C 384.792 393.289 385.125 393.388 385.492 393.549 C 386.223 393.869 387.008 394.407 387.79 394.965 C 389.076 395.648 390.28 396.297 391.23 396.822 C 392.211 396.993 393.091 397.187 393.781 397.426 C 394.593 397.708 395.335 398.09 395.956 398.468 C 397.612 399.186 399.517 400.106 401 400.902 C 402.939 401.942 405.437 403.206 406.281 404.177 C 406.783 404.754 406.854 405.368 406.816 405.781 C 406.787 406.098 406.584 406.35 406.348 406.517 C 406.088 406.7 405.828 406.9 405.278 406.784 C 404.65 406.652 403.624 405.98 402.442 405.22 C 402.313 405.531 402.074 405.811 401.803 405.982 C 401.385 406.245 400.541 406.273 400.065 406.249 C 399.689 406.23 399.426 405.865 399.129 405.982 C 398.747 406.132 398.576 407.177 398.059 407.452 C 397.494 407.754 396.509 407.681 395.786 407.586 C 395.085 407.494 394.441 406.979 393.781 406.918 C 393.15 406.859 392.63 407.202 391.909 407.185 C 391.029 407.165 389.57 406.68 388.835 406.65 C 388.354 406.631 388.073 406.793 387.765 406.784 C 387.509 406.777 387.384 406.65 387.097 406.65 C 386.69 406.65 386.398 406.935 385.492 406.918 C 383.532 406.881 375.968 405.834 374.396 405.313 C 373.785 405.111 373.743 404.852 373.527 404.712 C 373.382 404.618 373.426 404.611 373.193 404.511 C 372.541 404.233 369.409 402.954 368.38 402.907 C 367.789 402.88 367.657 403.409 367.177 403.308 C 366.477 403.161 364.991 401.929 364.57 401.37 C 364.31 401.024 364.246 400.862 364.302 400.434 C 364.396 399.726 365.665 398.288 365.773 397.359 C 365.864 396.578 365.177 395.721 365.238 395.22 C 365.28 394.874 365.447 394.652 365.706 394.485 C 366.021 394.28 366.904 394.57 367.11 394.217 C 367.379 393.755 366.544 392.055 366.575 391.476 C 366.59 391.203 366.743 391.115 366.812 390.944 C 366.643 390.522 366.495 389.889 366.575 389.337 C 366.709 388.421 367.8 386.567 368.113 386.196 C 368.23 386.057 368.232 386.091 368.38 386.062 Z M 415.573 410.466 C 415.954 410.419 416.579 410.476 417.1 410.646 C 417.685 410.837 417.854 410.956 418.897 411.635 C 421.46 413.302 431.126 420.26 434.623 422.957 C 435.059 423.293 435.435 423.599 435.771 423.882 C 436.006 423.92 436.259 423.995 436.51 424.125 C 437.101 424.432 438.18 425.549 438.442 425.787 C 438.535 425.872 438.499 425.845 438.576 425.922 C 438.629 425.975 438.697 426.056 438.78 426.154 C 438.862 426.195 438.944 426.238 439.026 426.282 C 439.509 426.543 440.258 427.163 440.544 427.441 C 441.304 427.798 442.208 428.171 442.71 428.528 C 443.185 428.866 443.553 429.302 443.796 429.591 C 444.141 429.805 444.471 430.019 444.777 430.235 C 445.509 430.752 446.164 431.351 446.782 431.899 C 446.958 432.02 447.092 432.115 447.158 432.167 C 447.264 432.252 447.2 432.234 447.293 432.302 C 447.523 432.472 448.633 433.035 448.865 433.246 C 448.961 433.333 448.92 433.359 448.977 433.441 C 449.685 433.704 450.354 433.722 450.977 434.099 C 451.784 434.589 452.744 435.374 453.179 436.121 C 453.563 436.783 453.724 437.689 453.628 438.278 C 453.547 438.774 453.206 439.123 452.864 439.491 C 452.49 439.894 451.947 440.361 451.426 440.569 C 450.926 440.769 450.435 440.738 449.809 440.749 C 449.041 440.762 447.912 440.723 447.113 440.569 C 446.406 440.433 445.767 439.937 445.226 439.94 C 444.776 439.943 444.5 440.31 444.058 440.389 C 443.557 440.48 442.748 440.502 442.351 440.389 C 442.071 440.31 441.896 440.202 441.766 439.985 C 441.608 439.719 441.523 439.123 441.587 438.817 C 441.639 438.567 441.711 438.412 441.991 438.233 C 442.071 438.182 442.18 438.13 442.309 438.077 C 441.549 437.586 440.907 437.203 440.688 437.244 C 440.44 437.292 440.6 437.741 440.598 438.008 C 440.596 438.293 440.777 438.593 440.688 438.907 C 440.58 439.29 440.241 439.871 439.835 440.12 C 439.403 440.385 438.817 440.453 438.127 440.389 C 437.205 440.305 436.119 439.595 434.713 439.311 C 432.888 438.944 429.652 439.033 427.883 438.592 C 426.544 438.258 425.998 437.613 424.738 437.244 C 423.197 436.794 421.159 436.807 419.167 436.256 C 416.9 435.629 412.701 434.097 411.843 433.515 C 411.539 433.309 411.724 433.099 411.529 433.021 C 411.256 432.911 410.612 433.301 410.181 433.201 C 409.726 433.095 409.203 432.908 408.878 432.347 C 408.376 431.48 408.049 428.994 408.159 427.764 C 408.245 426.804 408.601 426.248 409.058 425.428 C 409.6 424.453 410.838 422.852 411.349 422.328 C 411.609 422.061 411.752 422.192 411.933 421.923 C 412.24 421.469 412.367 420.173 412.742 419.407 C 413.107 418.664 413.87 417.659 414.135 417.386 C 414.243 417.274 414.335 417.365 414.359 417.251 C 414.413 417.004 413.758 416.068 413.82 415.543 C 413.88 415.038 414.353 414.419 414.674 414.151 C 414.7 414.129 414.727 414.109 414.753 414.092 C 414.592 413.933 414.459 413.787 414.359 413.656 C 413.746 412.855 413.978 412.446 414.09 411.949 C 414.196 411.481 414.658 410.978 414.944 410.736 C 415.153 410.559 415.296 410.5 415.573 410.466 Z M 460.574 444.406 C 460.955 444.339 461.457 444.265 462.013 444.526 C 462.099 444.566 462.19 444.616 462.283 444.674 C 462.486 444.683 462.686 444.71 462.853 444.765 C 463.353 444.932 463.811 445.404 464.232 445.785 C 464.65 446.164 465.163 446.823 465.371 447.044 C 465.468 447.147 465.405 447.095 465.551 447.224 C 466.091 447.7 470.161 450.948 470.708 451.481 C 470.865 451.635 470.682 451.525 470.887 451.721 C 472.041 452.818 485.89 463.816 488.096 465.932 C 488.869 466.673 488.572 466.685 489.116 467.191 C 489.98 467.994 492.424 469.473 493.253 470.249 C 493.753 470.717 493.799 471.052 494.152 471.388 C 494.515 471.734 495.191 472.107 495.412 472.288 C 495.519 472.376 495.444 472.333 495.592 472.468 C 496.166 472.993 500.622 476.638 501.288 477.444 C 501.528 477.735 501.392 477.855 501.528 477.984 C 501.668 478.118 501.966 478.009 502.127 478.224 C 502.388 478.571 502.712 479.778 502.607 480.323 C 502.522 480.765 502.216 481.111 501.828 481.342 C 501.368 481.615 500.678 481.875 499.909 481.702 C 499.705 481.656 499.451 481.551 499.171 481.409 C 499.062 481.526 498.944 481.628 498.829 481.702 C 498.525 481.898 498.225 481.996 497.75 481.942 C 497.022 481.858 495.398 480.611 494.752 480.742 C 494.294 480.835 494.274 481.602 493.913 481.822 C 493.554 482.04 493.129 482.188 492.593 482.061 C 491.803 481.874 490.216 480.114 489.595 480.143 C 489.207 480.16 489.214 480.8 488.876 480.982 C 488.486 481.192 487.821 481.298 487.317 481.222 C 486.801 481.145 486.208 480.345 485.818 480.502 C 485.379 480.68 485.361 482.153 484.918 482.541 C 484.542 482.871 483.954 482.937 483.479 482.901 C 482.995 482.864 482.441 482.141 482.04 482.301 C 481.572 482.489 481.448 483.926 480.961 484.34 C 480.537 484.701 480.194 484.988 479.402 484.82 C 477.782 484.475 472.588 479.804 471.127 479.663 C 470.443 479.597 470.358 480.365 469.928 480.502 C 469.516 480.634 469.085 480.583 468.609 480.502 C 468.058 480.41 467.39 480.238 466.81 479.903 C 466.166 479.53 465.289 478.642 464.951 478.284 C 464.771 478.092 464.828 477.934 464.651 477.864 C 464.403 477.766 463.811 478.053 463.452 477.984 C 463.117 477.92 462.727 477.646 462.553 477.504 C 462.446 477.418 462.464 477.39 462.373 477.265 C 462.202 477.028 461.892 476.235 461.533 476.065 C 461.201 475.908 460.75 476.25 460.334 476.185 C 459.874 476.114 459.324 475.65 458.895 475.586 C 458.541 475.533 458.356 475.777 457.936 475.706 C 457.281 475.595 455.985 475.301 455.237 474.566 C 454.337 473.682 453.442 471.284 453.199 470.369 C 453.063 469.859 453.087 469.642 453.199 469.29 C 453.322 468.901 453.702 468.374 453.978 468.15 C 454.189 467.98 454.436 468.072 454.638 467.911 C 454.885 467.713 455.05 467.149 455.297 466.951 C 455.499 466.79 455.883 466.938 455.957 466.711 C 456.079 466.335 455.248 465.101 455.118 464.373 C 455.003 463.733 455.006 463.049 455.118 462.574 C 455.207 462.195 455.333 461.908 455.597 461.675 C 455.9 461.408 456.798 461.542 456.916 461.135 C 457.085 460.556 455.452 458.814 455.477 458.017 C 455.496 457.423 455.951 456.908 456.377 456.638 C 456.808 456.364 457.789 456.388 458.056 456.398 C 458.166 456.402 458.162 456.507 458.236 456.458 C 458.415 456.337 458.722 455.145 459.015 454.839 C 459.219 454.626 459.591 454.698 459.675 454.539 C 459.753 454.391 459.571 454.09 459.555 453.94 C 459.544 453.836 459.55 453.849 459.555 453.7 C 459.566 453.317 459.491 451.845 459.675 451.181 C 459.822 450.649 460.158 450.179 460.394 449.922 C 460.556 449.746 460.871 449.81 460.874 449.622 C 460.878 449.293 459.732 448.453 459.435 447.823 C 459.163 447.249 458.985 446.55 459.075 446.025 C 459.158 445.542 459.569 445.036 459.855 444.765 C 460.078 444.554 460.272 444.459 460.574 444.406 Z M 508.983 487.117 C 509.602 487.236 510.313 487.615 511.37 488.637 C 513.424 490.622 518.795 498.581 520.486 500.43 C 521.228 501.24 521.173 500.85 521.933 501.66 C 523.695 503.537 530.395 512.374 531.7 513.742 C 532.103 514.165 532.158 514.055 532.351 514.248 C 532.544 514.441 532.594 514.63 532.858 514.899 C 533.273 515.324 533.854 515.521 534.811 516.563 C 536.828 518.761 543.801 528.565 544.94 529.659 C 545.217 529.925 545.262 529.685 545.374 529.876 C 545.584 530.233 545.825 531.658 545.663 532.191 C 545.542 532.589 545.214 532.847 544.867 532.987 C 544.484 533.141 543.762 533.068 543.421 532.987 C 543.183 532.93 543.038 532.805 542.914 532.697 C 542.811 532.608 542.774 532.517 542.697 532.408 C 542.607 532.281 542.537 531.947 542.408 531.974 C 542.201 532.017 541.975 533.153 541.539 533.421 C 541.091 533.696 540.029 533.428 539.731 533.565 C 539.574 533.637 539.642 533.76 539.514 533.855 C 539.313 534.003 538.901 534.336 538.501 534.289 C 537.963 534.226 536.893 533.43 536.547 533.059 C 536.332 532.827 536.524 532.495 536.258 532.408 C 535.762 532.246 533.436 533.255 533.002 533.276 C 532.854 533.283 532.854 533.186 532.785 533.204 C 532.708 533.223 532.714 533.349 532.568 533.421 C 532.263 533.57 531.22 533.91 530.687 533.855 C 530.233 533.807 529.958 533.296 529.53 533.276 C 529.052 533.254 528.398 533.915 527.938 533.855 C 527.518 533.8 527.11 533.232 526.853 533.059 C 526.691 532.95 526.604 532.848 526.491 532.842 C 526.389 532.836 526.34 532.99 526.202 532.987 C 525.976 532.98 525.615 532.573 525.189 532.553 C 524.622 532.526 523.603 533.206 523.018 533.131 C 522.539 533.07 522.332 532.482 521.861 532.408 C 521.304 532.32 520.332 532.899 519.835 532.842 C 519.478 532.801 519.254 532.346 519.039 532.408 C 518.815 532.473 518.847 533.08 518.533 533.276 C 518.115 533.537 517.235 533.762 516.507 533.565 C 515.58 533.316 514.269 531.682 513.468 531.395 C 512.943 531.207 512.759 531.583 512.166 531.395 C 511.119 531.063 508.656 528.899 507.536 528.646 C 506.843 528.489 506.373 529.016 505.944 528.935 C 505.583 528.867 505.416 528.436 505.076 528.356 C 504.703 528.269 504.344 528.684 503.773 528.501 C 502.785 528.183 500.206 525.3 499.577 525.462 C 499.15 525.572 499.568 526.914 499.36 527.416 C 499.188 527.832 498.918 528.151 498.564 528.356 C 498.184 528.577 497.564 528.731 497.117 528.646 C 496.672 528.561 496.157 528.35 495.887 527.85 C 495.5 527.13 495.562 525.625 495.598 524.232 C 495.642 522.533 495.758 520.285 496.321 518.3 C 496.921 516.186 498.376 514.278 499.215 511.933 C 500.138 509.357 500.392 505.936 501.531 503.396 C 502.604 501.002 504.967 499.018 505.727 497.029 C 506.351 495.395 505.993 493.31 506.306 492.399 C 506.484 491.88 506.741 491.682 506.957 491.458 C 507.126 491.283 507.393 491.331 507.463 491.097 C 507.577 490.718 506.936 489.694 507.029 489.071 C 507.119 488.467 507.592 487.72 507.97 487.407 C 508.267 487.16 508.565 487.038 508.983 487.117 Z M 590.403 610.014 C 590.886 609.935 591.538 610.006 591.987 610.181 C 592.402 610.343 592.646 610.447 593.029 610.973 C 593.457 611.561 593.895 612.759 594.404 614.06 C 595.077 614.914 596.166 616.594 596.53 617.642 C 596.67 618.047 596.741 618.425 596.774 618.793 C 597.962 620.72 599.365 622.802 599.948 624.061 C 600.445 625.135 600.329 625.595 600.698 626.478 C 601.139 627.534 602.163 628.929 602.532 629.979 C 602.832 630.835 602.603 631.401 602.949 632.313 C 603.422 633.562 604.825 635.337 605.533 636.815 C 606.195 638.196 606.404 639.301 607.117 640.9 C 608.033 642.954 609.809 646.082 610.785 648.236 C 611.593 650.02 612.365 651.675 612.702 652.987 C 612.956 653.974 613.119 654.724 612.952 655.488 C 612.789 656.235 612.321 657.1 611.743 657.53 C 611.176 657.953 610.075 657.735 609.534 658.072 C 609.071 658.361 609.064 658.85 608.576 659.281 C 607.885 659.891 606.849 660.602 605.491 661.282 C 603.651 662.203 600.286 663.129 598.155 664.116 C 596.306 664.973 595.065 665.937 593.32 666.784 C 591.446 667.694 589.32 668.607 587.235 669.368 C 585.126 670.138 582.598 670.937 580.733 671.369 C 579.231 671.716 577.953 671.656 576.815 671.952 C 575.828 672.209 574.992 672.784 574.23 672.952 C 573.608 673.09 573.113 673.184 572.563 673.036 C 571.959 672.873 571.214 672.501 570.771 671.91 C 570.258 671.227 569.809 670.154 569.854 668.993 C 569.912 667.499 571.495 664.885 571.771 663.574 C 571.95 662.729 571.714 662.452 571.855 661.657 C 572.051 660.545 572.426 659.098 573.105 657.405 C 574.019 655.126 576.078 652.098 577.273 649.069 C 578.552 645.827 579.227 641.404 580.441 638.482 C 581.444 636.067 582.861 634.294 583.775 632.48 C 584.559 630.926 585.18 629.577 585.693 628.229 C 586.158 627.005 586.324 625.831 586.776 624.727 C 587.218 623.653 588.052 622.04 588.36 621.685 C 588.473 621.554 588.514 621.638 588.61 621.56 C 588.76 621.439 589.039 621.058 589.152 620.935 C 589.214 620.868 589.216 620.871 589.277 620.809 C 589.384 620.703 589.695 620.507 589.778 620.309 C 589.858 620.116 589.838 620.011 589.778 619.642 C 589.646 618.838 588.789 616.473 588.527 615.141 C 588.307 614.022 588.028 612.936 588.194 612.14 C 588.329 611.49 588.756 610.955 589.152 610.598 C 589.507 610.277 589.946 610.089 590.403 610.014 Z M 551.854 543.396 C 552.313 543.365 552.803 543.475 553.24 543.693 C 553.716 543.931 554.071 544.191 554.577 544.831 C 555.405 545.881 556.42 548.392 557.547 550.079 C 558.692 551.793 560.033 552.934 561.408 555.029 C 563.177 557.725 565.303 562.403 567.15 565.326 C 568.717 567.804 570.401 569.508 571.705 571.662 C 572.959 573.735 573.415 575.456 574.873 577.999 C 576.844 581.436 581.293 587.758 582.991 590.671 C 584.024 592.443 584.616 593.506 584.972 594.533 C 585.222 595.256 585.3 595.724 585.269 596.315 C 585.237 596.912 585.041 597.629 584.774 598.097 C 584.539 598.507 584.256 598.791 583.833 599.038 C 583.329 599.331 582.55 599.633 581.853 599.632 C 581.104 599.63 580.129 599.305 579.477 598.939 C 578.882 598.605 578.266 597.817 578.041 597.602 C 577.949 597.514 577.976 597.548 577.893 597.453 C 577.692 597.224 577.101 595.891 576.705 595.968 C 576.21 596.065 575.935 598.334 575.219 598.939 C 574.574 599.484 573.675 599.721 572.744 599.632 C 571.601 599.521 569.466 597.581 568.834 597.849 C 568.363 598.049 568.788 599.292 568.537 599.879 C 568.296 600.44 567.84 600.974 567.398 601.315 C 566.989 601.63 566.492 601.81 566.012 601.909 C 565.535 602.007 565.143 601.989 564.527 601.909 C 563.672 601.798 562.283 601.595 561.26 601.117 C 560.198 600.621 558.982 598.846 558.289 598.939 C 557.737 599.012 557.62 600.3 557.2 600.721 C 556.845 601.076 556.515 601.262 556.012 601.414 C 555.386 601.603 554.38 601.687 553.636 601.612 C 552.933 601.54 552.235 601.318 551.656 601.018 C 551.104 600.731 550.445 600.074 550.22 599.879 C 550.126 599.797 550.146 599.793 550.072 599.731 C 549.953 599.631 549.643 599.466 549.527 599.335 C 549.44 599.235 549.468 599.147 549.379 599.038 C 549.249 598.878 548.907 598.671 548.735 598.493 C 548.589 598.342 548.596 598.09 548.389 598.047 C 548.059 597.98 547.327 598.538 546.706 598.642 C 546.02 598.756 545.187 598.86 544.428 598.642 C 543.586 598.399 542.358 597.578 541.904 597.107 C 541.618 596.81 541.811 596.39 541.508 596.265 C 541.052 596.078 539.711 596.912 538.983 596.76 C 538.308 596.62 537.622 595.968 537.25 595.523 C 536.951 595.164 537.09 594.616 536.755 594.384 C 536.355 594.107 535.404 594.411 534.825 594.186 C 534.249 593.963 533.696 593.508 533.29 593.048 C 532.892 592.597 532.545 592.017 532.399 591.464 C 532.257 590.927 532.24 590.334 532.399 589.78 C 532.573 589.177 533.205 588.758 533.488 587.998 C 533.846 587.041 533.68 585.568 534.181 584.335 C 534.746 582.947 536.297 580.716 536.904 580.127 C 537.181 579.858 537.391 580.078 537.547 579.83 C 537.804 579.423 537.587 578.114 537.844 577.405 C 538.085 576.74 538.659 576.008 538.983 575.672 C 539.186 575.461 539.457 575.557 539.528 575.325 C 539.64 574.958 539.025 574.141 539.033 573.345 C 539.042 572.318 539.45 570.556 539.924 569.583 C 540.315 568.781 540.819 568.241 541.458 567.751 C 542.127 567.239 543.658 567.197 543.884 566.613 C 544.103 566.046 543.048 565.052 542.894 564.336 C 542.759 563.709 542.736 563.218 542.894 562.554 C 543.092 561.723 543.952 560.086 544.23 559.732 C 544.338 559.595 544.393 559.661 544.478 559.583 C 544.589 559.482 544.592 559.29 544.824 559.138 C 545.258 558.854 547.021 558.764 547.349 558.247 C 547.633 557.8 547.015 557.095 547.052 556.415 C 547.096 555.619 547.428 554.444 547.745 553.742 C 548.002 553.173 548.337 552.694 548.686 552.405 C 548.975 552.166 549.446 552.414 549.626 552.009 C 549.983 551.21 548.872 547.848 549.131 546.416 C 549.329 545.322 549.934 544.378 550.468 543.891 C 550.878 543.517 551.388 543.427 551.854 543.396 Z M 260.62 352.233 C 260.895 352.228 261.313 352.385 261.489 352.5 C 261.507 352.512 261.52 352.524 261.528 352.535 C 261.723 352.498 261.917 352.483 262.091 352.5 C 262.462 352.536 262.963 352.755 263.373 353 C 263.887 353.065 264.454 353.163 265.032 353.303 C 265.502 353.417 266.118 353.585 266.82 353.79 C 267.007 353.631 267.274 353.581 267.706 353.57 C 268.541 353.549 270.337 353.83 271.717 354.238 C 273.226 354.685 274.263 355.578 276.396 356.244 C 279.552 357.229 285.629 358.091 289.631 359.185 C 291.654 359.738 293.895 360.594 295.807 361.288 C 296.473 361.239 298.064 362.006 298.455 361.992 C 298.627 361.987 298.562 361.851 298.722 361.859 C 298.965 361.87 299.706 362.121 300.277 362.374 C 300.631 362.297 300.882 362.174 301.262 362.26 C 301.949 362.415 303.014 362.975 303.334 363.396 C 303.557 363.688 303.489 364.108 303.468 364.332 C 303.454 364.484 303.474 364.57 303.334 364.666 C 303.187 364.768 302.757 364.894 302.327 364.979 C 302.316 365.039 302.296 365.092 302.265 365.134 C 302.035 365.452 300.771 365.648 300.46 365.468 C 300.22 365.33 300.576 364.815 300.259 364.533 C 300.2 364.48 300.113 364.428 300.005 364.378 C 299.939 364.396 299.869 364.414 299.797 364.432 C 299.752 364.471 299.705 364.505 299.658 364.533 C 299.354 364.711 299.349 364.767 298.455 364.666 C 295.25 364.305 276.652 359.958 269.845 357.982 C 266.467 357 263.21 356.03 261.307 355.185 C 260.991 355.26 260.756 355.343 260.687 355.442 C 260.551 355.638 260.776 355.875 261.021 356.11 C 261.43 356.5 263.123 356.899 263.361 357.38 C 263.533 357.728 263.395 358.308 263.027 358.516 C 262.451 358.843 260.112 358.222 259.417 358.249 C 259.061 358.263 258.943 358.423 258.749 358.383 C 258.567 358.345 258.381 358.181 258.281 358.049 C 258.192 357.931 258.124 357.783 258.147 357.647 C 258.173 357.494 258.296 357.304 258.481 357.18 C 258.729 357.013 259.463 357.175 259.618 356.845 C 259.835 356.383 258.74 354.632 258.949 354.172 C 259.039 353.975 259.333 353.972 259.601 353.951 C 259.526 353.694 259.608 353.451 259.618 353.236 C 259.631 352.955 259.718 352.668 259.885 352.5 C 260.052 352.333 260.362 352.238 260.62 352.233 Z" style="stroke-width: 0px; stroke: rgb(0, 0, 0);"/>
        </g>
        <path style="stroke: rgb(0, 0, 0);" d="M 592.672 609.272 L 570.579 672.622 L 595.277 666.718 L 613.02 654.003 L 592.672 609.272 Z"/>
        <path style="stroke: rgb(0, 0, 0);" d="M 552.246 540.775 L 586.496 596.359 L 558.543 599.473 L 531.707 592.914 L 552.246 540.775 Z"/>
        <path style="stroke: rgb(0, 0, 0);" d="M 508.453 485.19 L 493.764 523.642 L 518.522 534.409 L 545.884 530.668 L 508.453 485.19 Z"/>
        <path style="stroke: rgb(0, 0, 0);" d="M 461.852 443.643 L 502.839 478.453 C 502.839 478.453 485.107 482.531 476.261 481.426 C 467.525 480.334 451.543 472.122 451.543 472.122 L 461.852 443.643 Z"/>
        <path style="stroke: rgb(0, 0, 0);" d="M 415.251 408.832 L 454.553 436.905 C 454.553 436.905 437.09 441.1 428.42 439.816 C 420.901 438.702 407.463 430.831 407.463 430.831 L 415.251 408.832 Z"/>
        <path style="stroke: rgb(0, 0, 0);" d="M 366.966 384.69 L 407.952 404.341 C 407.952 404.341 391.993 409.359 383.832 408.832 C 376.162 408.337 361.895 401.733 361.895 401.733 L 366.966 384.69 Z"/>
        <path style="stroke: rgb(0, 0, 0);" d="M 318.119 366.723 L 359.106 381.321 C 359.106 381.321 343.337 385.469 335.391 384.69 C 328.037 383.969 314.466 377.368 314.466 377.368 L 318.119 366.723 Z"/>
        <path style="stroke: rgb(0, 0, 0);" d="M 250.651 349.488 L 308.442 364.026 C 308.442 364.026 287.341 365.265 277.268 362.675 C 267.678 360.21 250.651 349.488 250.651 349.488 Z"/>
      </g>
      <path style="fill: none; stroke-width: 7px; stroke: rgb(0, 0, 0);" d="M 244.089 345.996 C 215.984 344.468 357.994 390.666 458.726 533.325 C 475.557 557.162 488.049 586.643 499.603 616.248 C 507.581 636.691 512.831 655.236 518.599 674.957 C 522.907 689.689 528.119 704.715 531.648 723.634 C 537.878 757.031 550.784 800.558 553.861 842.907 C 554.459 851.14 578.551 793.715 596.466 742.592 C 613.912 692.808 625.202 649.395 625.202 649.395 C 625.202 649.395 522.811 361.15 244.089 345.996 Z">
        <title>border</title>
      </path>
    </g>
  </g>
  <g style="">
    <title>pattern-3</title>
    <line style="stroke-width: 6px; stroke: rgb(0, 0, 0);" x1="366.053" y1="707.331" x2="392.643" y2="643.139"/>
    <line style="stroke-width: 6px; stroke: rgb(0, 0, 0);" x1="372.48" y1="769.148" x2="343.083" y2="840.12"/>
    <line style="stroke-width: 6px; stroke: rgb(0, 0, 0);" x1="428.367" y1="782.747" x2="453.431" y2="722.237"/>
    <line style="stroke-width: 6px; stroke: rgb(0, 0, 0);" x1="308.769" y1="702.86" x2="271.054" y2="793.913"/>
    <path style="fill: none; stroke-width: 6px; stroke: rgb(0, 0, 0);" d="M 195.997 510.326 C 195.997 510.326 188.642 581.086 206.389 618.516 C 231.449 671.368 254.677 787.219 254.677 787.219 C 254.677 787.219 309.657 806.455 360.581 855.072 C 435.063 926.181 443.552 956.534 443.552 956.534 C 443.552 956.534 473.072 944.345 493.33 923.67 C 518.368 898.116 536.461 872.183 536.461 872.183 C 536.461 872.183 487.253 754.519 395.263 646.022 C 281.467 511.805 195.997 510.326 195.997 510.326 Z"/>
    <path style="fill: none; stroke-width: 6px; stroke: rgb(0, 0, 0);" d="M 218.003 647.245 L 284.629 641.32 L 308.5 703.177 L 366.364 707.271 L 372.23 769.222 L 428.557 783.228 L 432.089 843.377 L 487.183 863.927 L 496.555 919.807"/>
    <line style="stroke-width: 6px; stroke: rgb(0, 0, 0);" x1="284.62351806925494" y1="640.6678209274514" x2="314.925833565533" y2="567.5115598850285"/>
    <line style="stroke-width: 6px; stroke: rgb(0, 0, 0);" x1="432.2792259484988" y1="843.699951171875" x2="407.69994645431035" y2="903.0395810801037"/>
    <line style="stroke-width: 6px; stroke: rgb(0, 0, 0);" x1="487.0482526692689" y1="864.552001953125" x2="508.05246918656934" y2="813.8433375700373"/>
  </g>
  <g style="">
    <title>pattern-4-wave</title>
    <path style="stroke-width: 4px; stroke: rgb(0, 0, 0);" d="M 253.694 797.118 C 253.694 797.118 310.181 818.486 353.799 860.037 C 421.138 924.185 438.91 963.197 436.568 961.367 C 436.568 961.367 415.357 969.524 385.832 972.628 C 375.534 973.711 362.831 974.336 353.5 973.688 C 337.681 972.589 335.254 969.524 335.254 969.524 C 335.254 969.524 329.849 968.756 323.037 963.916 C 319.28 961.247 315.485 957.049 310.168 951.74 C 305.333 946.913 300.049 940.636 293.981 933.029 C 277.668 912.579 268.087 885.17 268.087 885.17 L 262.306 870.791 L 257.654 855.846 C 252.816 843.969 252.847 826.752 252.847 826.752 C 252.847 826.752 272.647 832.863 286.787 840.975 C 297.275 846.992 304.781 852.081 310.839 857.061 C 324.74 868.49 328.266 875.584 328.266 875.584 C 328.266 875.584 331.352 879.205 332.505 883.602 C 333.856 888.752 334.214 895.418 331.768 899.557 C 328.298 905.428 318.342 906.561 309.394 895.046 C 305.689 890.277 305.535 885.298 310.182 878.025 C 317.821 866.07 312.073 856.196 283.362 849.149 C 279.325 848.158 275.185 847.45 270.943 849.193 C 261.117 853.231 277.33 903.848 295.642 919.133 C 314.06 934.507 305.018 928.237 322.147 938.903 C 339.294 949.58 361.758 953.568 376.175 945.281 C 393.819 935.139 374.491 901.597 349.187 877.426 C 323.449 852.84 327.854 857.337 319.821 850.297 C 302.45 835.073 253.412 814.334 253.412 814.334 C 253.412 814.334 251.323 802.174 253.694 797.118 Z"/>
  </g>
  <g style="" transform="matrix(0.96787, 0, 0, 1.012845, 8.13974, -2.50087)">
    <title>pattern-5</title>
    <g style="">
      <line style="stroke-width: 5.04868px; stroke: rgb(0, 0, 0);" x1="329.953" y1="337.596" x2="321.884" y2="241.919"/>
      <line style="stroke-width: 5.04868px; stroke: rgb(0, 0, 0);" x1="549.992" y1="464.458" x2="571.765" y2="237.97"/>
      <line style="stroke-width: 5.04868px; stroke: rgb(0, 0, 0);" x1="661.66" y1="440.556" x2="625.082" y2="569.809"/>
    </g>
    <line style="stroke-width: 2.01947px; stroke: rgb(0, 0, 0);" x1="574.865" y1="241.919" x2="321.884" y2="337.596"/>
    <line style="stroke-width: 2.01947px; stroke: rgb(0, 0, 0);" x1="387.86" y1="357.665" x2="565.355" y2="293.295"/>
    <line style="stroke-width: 2.01947px; stroke: rgb(0, 0, 0);" x1="439.773" y1="382.278" x2="562.048" y2="338.142"/>
    <line style="stroke-width: 2.01947px; stroke: rgb(0, 0, 0);" x1="485.686" y1="410.109" x2="557.038" y2="385.801"/>
    <line style="stroke-width: 2.01947px; stroke: rgb(0, 0, 0);" x1="567.632" y1="485.408" x2="650.542" y2="478.293"/>
    <line style="stroke-width: 2.01947px; stroke: rgb(0, 0, 0);" x1="583.717" y1="506.323" x2="643.751" y2="501.416"/>
    <line style="stroke-width: 2.01947px; stroke: rgb(0, 0, 0);" x1="600.47" y1="531.061" x2="637.547" y2="528.096"/>
    <line style="stroke-width: 2.01947px; stroke: rgb(0, 0, 0);" x1="327.887" y1="311.49" x2="302.448" y2="334.634"/>
    <line style="stroke-width: 2.01947px; stroke: rgb(0, 0, 0);" x1="326.854" y1="291.321" x2="283.259" y2="327.435"/>
    <line style="stroke-width: 2.01947px; stroke: rgb(0, 0, 0);" x1="323.746" y1="271.305" x2="262.324" y2="322.887"/>
    <line style="stroke-width: 2.01947px; stroke: rgb(0, 0, 0);" x1="356.633" y1="219.527" x2="366.56" y2="320.913"/>
    <line style="stroke-width: 2.01947px; stroke: rgb(0, 0, 0);" x1="400.064" y1="202.134" x2="411.853" y2="303.52"/>
    <line style="stroke-width: 2.01947px; stroke: rgb(0, 0, 0);" x1="439.773" y1="196.294" x2="439.773" y2="196.294"/>
    <line style="stroke-width: 2.01947px; stroke: rgb(0, 0, 0);" x1="443.906" y1="192.344" x2="455.074" y2="287.372"/>
    <line style="stroke-width: 2.01947px; stroke: rgb(0, 0, 0);" x1="487.753" y1="202.134" x2="495.819" y2="271.305"/>
    <line style="stroke-width: 2.01947px; stroke: rgb(0, 0, 0);" x1="532.22" y1="219.527" x2="536.563" y2="256.483"/>
    <line style="stroke-width: 2.01947px; stroke: rgb(0, 0, 0);" x1="605.851" y1="276.111" x2="585.997" y2="459.918"/>
    <line style="stroke-width: 2.01947px; stroke: rgb(0, 0, 0);" x1="633.829" y1="321.305" x2="620.745" y2="457.34"/>
    <line style="stroke-width: 2.01947px; stroke: rgb(0, 0, 0);" x1="661.66" y1="516.041" x2="637.547" y2="588.375"/>
    <line style="stroke-width: 2.01947px; stroke: rgb(0, 0, 0);" x1="663.727" y1="453.391" x2="545.86" y2="463.47"/>
    <path style="fill: none; stroke-width: 8.07789px; stroke: rgb(0, 0, 0);" d="M 253.342 327.638 C 253.342 327.638 283.5 261.693 371.104 212.915 C 447.725 170.252 517.867 207.392 560.636 231.132 C 589.833 247.339 634.789 301.302 650.542 357.01 C 663.727 403.638 663.727 399.907 663.727 463.356 C 663.727 493.291 661.795 522.833 659.41 547.897 C 658.064 555.788 656.672 564.845 655.604 572.969 C 655.221 574.942 654.96 576.334 654.851 576.955 C 654.683 577.91 655.031 577.127 654.851 578.014 C 654.319 580.642 649.21 595.587 645.327 608.095 C 634.643 589.894 608.831 546.934 580.018 506.323 C 552.11 466.988 513.733 432.676 470.073 401.4 C 427.882 371.176 353.19 335.432 253.342 327.638 Z"/>
  </g>
  <g style="">
    <title>tribal_leaf</title>
    <path style="fill: none; stroke-width: 6px; stroke: rgb(0, 0, 0);" d="M 646.573 99.644 C 646.573 99.644 660.213 270.251 686.586 338.417 C 740.007 476.497 751.265 509.823 751.265 509.823 C 749.678 425.26 746.778 436.721 744.311 355.488 C 742.68 301.778 692.598 146.156 646.573 99.644 Z"/>
    <path style="fill: none; stroke-width: 6px; stroke: rgb(0, 0, 0);" d="M 644.073 95.501 C 644.073 95.501 637.327 261.948 670.731 348.289 C 738.395 523.183 766.268 591.819 766.268 591.819 C 764.257 484.71 774.816 450.872 766.267 348.289 C 760.198 275.454 702.369 154.414 644.073 95.501 Z"/>
    <path style="fill: none; stroke-width: 4px; stroke: rgb(0, 0, 0);" d="M 650.573 109.207 C 650.573 109.207 667.126 219.44 676.817 250.908 C 692.663 302.363 710.378 345.824 710.378 345.824 C 709.663 307.73 708.99 289.501 702.821 245.954 C 699.426 221.987 671.306 130.159 650.573 109.207 Z"/>
  </g>
</svg>